<svg aria-roledescription="er" role="graphics-document document" viewBox="0 0 516.8975219726562 640" style="max-width: 516.8975219726562px;" xmlns="http://www.w3.org/2000/svg" width="100%" id="mermaid-svg-1753332704637-qao4aiwq9"><style>#mermaid-svg-1753332704637-qao4aiwq9{font-family:"trebuchet ms",verdana,arial,sans-serif;font-size:16px;fill:rgba(204, 204, 204, 0.87);}#mermaid-svg-1753332704637-qao4aiwq9 .error-icon{fill:#bf616a;}#mermaid-svg-1753332704637-qao4aiwq9 .error-text{fill:#bf616a;stroke:#bf616a;}#mermaid-svg-1753332704637-qao4aiwq9 .edge-thickness-normal{stroke-width:2px;}#mermaid-svg-1753332704637-qao4aiwq9 .edge-thickness-thick{stroke-width:3.5px;}#mermaid-svg-1753332704637-qao4aiwq9 .edge-pattern-solid{stroke-dasharray:0;}#mermaid-svg-1753332704637-qao4aiwq9 .edge-pattern-dashed{stroke-dasharray:3;}#mermaid-svg-1753332704637-qao4aiwq9 .edge-pattern-dotted{stroke-dasharray:2;}#mermaid-svg-1753332704637-qao4aiwq9 .marker{fill:rgba(204, 204, 204, 0.87);stroke:rgba(204, 204, 204, 0.87);}#mermaid-svg-1753332704637-qao4aiwq9 .marker.cross{stroke:rgba(204, 204, 204, 0.87);}#mermaid-svg-1753332704637-qao4aiwq9 svg{font-family:"trebuchet ms",verdana,arial,sans-serif;font-size:16px;}#mermaid-svg-1753332704637-qao4aiwq9 .entityBox{fill:#1a1a1a;stroke:#2a2a2a;}#mermaid-svg-1753332704637-qao4aiwq9 .attributeBoxOdd{fill:#ffffff;stroke:#2a2a2a;}#mermaid-svg-1753332704637-qao4aiwq9 .attributeBoxEven{fill:#f2f2f2;stroke:#2a2a2a;}#mermaid-svg-1753332704637-qao4aiwq9 .relationshipLabelBox{fill:#88c0d0;opacity:0.7;background-color:#88c0d0;}#mermaid-svg-1753332704637-qao4aiwq9 .relationshipLabelBox rect{opacity:0.5;}#mermaid-svg-1753332704637-qao4aiwq9 .relationshipLine{stroke:rgba(204, 204, 204, 0.87);}#mermaid-svg-1753332704637-qao4aiwq9 .entityTitleText{text-anchor:middle;font-size:18px;fill:rgba(204, 204, 204, 0.87);}#mermaid-svg-1753332704637-qao4aiwq9 #MD_PARENT_START{fill:#f5f5f5!important;stroke:rgba(204, 204, 204, 0.87)!important;stroke-width:1;}#mermaid-svg-1753332704637-qao4aiwq9 #MD_PARENT_END{fill:#f5f5f5!important;stroke:rgba(204, 204, 204, 0.87)!important;stroke-width:1;}#mermaid-svg-1753332704637-qao4aiwq9 :root{--mermaid-font-family:"trebuchet ms",verdana,arial,sans-serif;}</style><g/><defs><marker orient="auto" markerHeight="240" markerWidth="190" refY="7" refX="0" id="MD_PARENT_START"><path d="M 18,7 L9,13 L1,7 L9,1 Z"/></marker></defs><defs><marker orient="auto" markerHeight="28" markerWidth="20" refY="7" refX="19" id="MD_PARENT_END"><path d="M 18,7 L9,13 L1,7 L9,1 Z"/></marker></defs><defs><marker orient="auto" markerHeight="18" markerWidth="18" refY="9" refX="0" id="ONLY_ONE_START"><path d="M9,0 L9,18 M15,0 L15,18" fill="none" stroke="gray"/></marker></defs><defs><marker orient="auto" markerHeight="18" markerWidth="18" refY="9" refX="18" id="ONLY_ONE_END"><path d="M3,0 L3,18 M9,0 L9,18" fill="none" stroke="gray"/></marker></defs><defs><marker orient="auto" markerHeight="18" markerWidth="30" refY="9" refX="0" id="ZERO_OR_ONE_START"><circle r="6" cy="9" cx="21" fill="white" stroke="gray"/><path d="M9,0 L9,18" fill="none" stroke="gray"/></marker></defs><defs><marker orient="auto" markerHeight="18" markerWidth="30" refY="9" refX="30" id="ZERO_OR_ONE_END"><circle r="6" cy="9" cx="9" fill="white" stroke="gray"/><path d="M21,0 L21,18" fill="none" stroke="gray"/></marker></defs><defs><marker orient="auto" markerHeight="36" markerWidth="45" refY="18" refX="18" id="ONE_OR_MORE_START"><path d="M0,18 Q 18,0 36,18 Q 18,36 0,18 M42,9 L42,27" fill="none" stroke="gray"/></marker></defs><defs><marker orient="auto" markerHeight="36" markerWidth="45" refY="18" refX="27" id="ONE_OR_MORE_END"><path d="M3,9 L3,27 M9,18 Q27,0 45,18 Q27,36 9,18" fill="none" stroke="gray"/></marker></defs><defs><marker orient="auto" markerHeight="36" markerWidth="57" refY="18" refX="18" id="ZERO_OR_MORE_START"><circle r="6" cy="18" cx="48" fill="white" stroke="gray"/><path d="M0,18 Q18,0 36,18 Q18,36 0,18" fill="none" stroke="gray"/></marker></defs><defs><marker orient="auto" markerHeight="36" markerWidth="57" refY="18" refX="39" id="ZERO_OR_MORE_END"><circle r="6" cy="18" cx="9" fill="white" stroke="gray"/><path d="M21,18 Q39,0 57,18 Q39,36 21,18" fill="none" stroke="gray"/></marker></defs><path style="stroke: gray; fill: none;" marker-start="url(#ONLY_ONE_START)" marker-end="url(#ZERO_OR_MORE_END)" d="M323.96,77.724L296.239,88.937C268.518,100.15,213.077,122.575,185.356,142.121C157.636,161.667,157.636,178.333,157.636,186.667L157.636,195" class="er relationshipLine"/><path style="stroke: gray; fill: none;" marker-start="url(#ONLY_ONE_START)" marker-end="url(#ZERO_OR_MORE_END)" d="M395.388,95L400.15,103.333C404.912,111.667,414.436,128.333,419.198,151.25C423.96,174.167,423.96,203.333,423.96,232.5C423.96,261.667,423.96,290.833,423.96,320C423.96,349.167,423.96,378.333,423.96,407.5C423.96,436.667,423.96,465.833,414.436,488.75C404.912,511.667,385.864,528.333,376.341,536.667L366.817,545" class="er relationshipLine"/><path style="stroke: gray; fill: none;" marker-start="url(#ZERO_OR_MORE_START)" marker-end="url(#ONLY_ONE_END)" d="M126.02,270L118.994,278.333C111.968,286.667,97.917,303.333,97.917,320C97.917,336.667,111.968,353.333,118.994,361.667L126.02,370" class="er relationshipLine"/><path style="stroke: gray; fill: none;" marker-start="url(#ZERO_OR_MORE_START)" marker-end="url(#ONLY_ONE_END)" d="M309.747,545L306.589,536.667C303.431,528.333,297.114,511.667,280.096,494.226C263.077,476.785,235.356,458.57,221.496,449.462L207.636,440.355" class="er relationshipLine"/><path style="stroke: gray; fill: none;" marker-start="url(#ONLY_ONE_START)" marker-end="url(#ZERO_OR_MORE_END)" d="M213.96,215.78L225.626,212.317C237.293,208.853,260.626,201.927,275.21,198.463C289.793,195,295.626,195,301.46,201.25C307.293,207.5,313.126,220,313.126,232.5C313.126,245,307.293,257.5,301.46,263.75C295.626,270,289.793,270,275.21,266.537C260.626,263.073,237.293,256.147,225.626,252.683L213.96,249.22" class="er relationshipLine"/><path style="stroke: gray; fill: none;" marker-start="url(#ONLY_ONE_START)" marker-end="url(#ZERO_OR_MORE_END)" d="M126.02,445L118.994,453.333C111.968,461.667,97.917,478.333,90.891,495C83.865,511.667,83.865,528.333,83.865,536.667L83.865,545" class="er relationshipLine"/><path style="stroke: gray; fill: none;" marker-start="url(#ONLY_ONE_START)" marker-end="url(#ZERO_OR_MORE_END)" d="M193.276,370L201.197,361.667C209.117,353.333,224.957,336.667,224.957,320C224.957,303.333,209.117,286.667,201.197,278.333L193.276,270" class="er relationshipLine"/><path style="stroke: gray; fill: none;" marker-start="url(#ONLY_ONE_START)" marker-end="url(#ZERO_OR_MORE_END)" d="M171.848,445L175.006,453.333C178.164,461.667,184.481,478.333,201.5,495.774C218.518,513.215,246.239,531.43,260.099,540.538L273.96,549.645" class="er relationshipLine"/><g transform="translate(323.9595718383789,20 )" id="entity-Hotel-a607a7aa-71b5-5610-9d8a-21078a3670c3"><rect height="75" width="100" y="0" x="0" class="er entityBox"/><text transform="translate(50,37.5)" style="dominant-baseline: middle; text-anchor: middle; font-size: 12px;" y="0" x="0" id="text-entity-Hotel-a607a7aa-71b5-5610-9d8a-21078a3670c3" class="er entityLabel">Hotel</text></g><g transform="translate(101.3115234375,195 )" id="entity-FinancialMetric-0a83f8e4-aebb-5f0f-b560-cd8a526fdc95"><rect height="75" width="112.6480484008789" y="0" x="0" class="er entityBox"/><text transform="translate(56.32402420043945,37.5)" style="dominant-baseline: middle; text-anchor: middle; font-size: 12px;" y="0" x="0" id="text-entity-FinancialMetric-0a83f8e4-aebb-5f0f-b560-cd8a526fdc95" class="er entityLabel">FinancialMetric</text></g><g transform="translate(273.9595718383789,545 )" id="entity-StockMetric-cc66f8c1-6f2e-525d-a4ab-fdfb1827a867"><rect height="75" width="100" y="0" x="0" class="er entityBox"/><text transform="translate(50,37.5)" style="dominant-baseline: middle; text-anchor: middle; font-size: 12px;" y="0" x="0" id="text-entity-StockMetric-cc66f8c1-6f2e-525d-a4ab-fdfb1827a867" class="er entityLabel">StockMetric</text></g><g transform="translate(107.63554763793945,370 )" id="entity-TimePeriod-2b4c38fe-f125-51e4-b033-1c45b73f023d"><rect height="75" width="100" y="0" x="0" class="er entityBox"/><text transform="translate(50,37.5)" style="dominant-baseline: middle; text-anchor: middle; font-size: 12px;" y="0" x="0" id="text-entity-TimePeriod-2b4c38fe-f125-51e4-b033-1c45b73f023d" class="er entityLabel">TimePeriod</text></g><g transform="translate(20,545 )" id="entity-IndicatorSummary-68a2b781-a09c-5fbb-a856-57d77b5e5561"><rect height="75" width="127.7300796508789" y="0" x="0" class="er entityBox"/><text transform="translate(63.86503982543945,37.5)" style="dominant-baseline: middle; text-anchor: middle; font-size: 12px;" y="0" x="0" id="text-entity-IndicatorSummary-68a2b781-a09c-5fbb-a856-57d77b5e5561" class="er entityLabel">IndicatorSummary</text></g><rect height="13.600000381469727" width="128.4246063232422" y="113.27266216278076" x="160.25122833251953" class="er relationshipLabelBox"/><text style="text-anchor: middle; dominant-baseline: middle; font-size: 12px;" y="120.07266235351562" x="224.46353149414062" id="rel9" class="er relationshipLabel">HAS_FINANCIAL_METRIC</text><rect height="13.600000381469727" width="145.875" y="320.123064994812" x="351.0224914550781" class="er relationshipLabelBox"/><text style="text-anchor: middle; dominant-baseline: middle; font-size: 12px;" y="326.9230651855469" x="423.9599914550781" id="rel10" class="er relationshipLabel">HAS_STOCK_PERFORMANCE</text><rect height="13.600000381469727" width="114.80000305175781" y="313.19999980926514" x="40.516998291015625" class="er relationshipLabelBox"/><text style="text-anchor: middle; dominant-baseline: middle; font-size: 12px;" y="320" x="97.91699981689453" id="rel11" class="er relationshipLabel">BELONGS_TO_PERIOD</text><rect height="13.600000381469727" width="114.80000305175781" y="476.85356426239014" x="211.2865219116211" class="er relationshipLabelBox"/><text style="text-anchor: middle; dominant-baseline: middle; font-size: 12px;" y="483.653564453125" x="268.6865234375" id="rel12" class="er relationshipLabel">BELONGS_TO_PERIOD</text><rect height="13.600000381469727" width="73.26250457763672" y="225.7000150680542" x="276.49475479125977" class="er relationshipLabelBox"/><text style="text-anchor: middle; dominant-baseline: middle; font-size: 12px;" y="232.50001525878906" x="313.1260070800781" id="rel13" class="er relationshipLabel">QoQ_CHANGE</text><rect height="13.600000381469727" width="88.00664520263672" y="483.4518003463745" x="49.07101821899414" class="er relationshipLabelBox"/><text style="text-anchor: middle; dominant-baseline: middle; font-size: 12px;" y="490.2518005371094" x="93.0743408203125" id="rel14" class="er relationshipLabel">HAS_VOLATILITY</text><rect height="13.600000381469727" width="93.32500457763672" y="313.19999980926514" x="178.29449844360352" class="er relationshipLabelBox"/><text style="text-anchor: middle; dominant-baseline: middle; font-size: 12px;" y="320" x="224.95700073242188" id="rel15" class="er relationshipLabel">CRITICAL_PERIOD</text><rect height="13.600000381469727" width="74.79375457763672" y="499.5465269088745" x="175.51218032836914" class="er relationshipLabelBox"/><text style="text-anchor: middle; dominant-baseline: middle; font-size: 12px;" y="506.3465270996094" x="212.9090576171875" id="rel16" class="er relationshipLabel">CRITICAL_DAY</text></svg>